<svg width="12" height="13" viewBox="0 0 12 13" fill="none" xmlns="http://www.w3.org/2000/svg">
<path fill-rule="evenodd" clip-rule="evenodd" d="M10.948 11.4033C10.5475 11.7835 10.0351 11.8941 9.80356 11.6503L1.41922 2.81937C1.18769 2.57551 1.32469 2.06956 1.72521 1.68929C2.12573 1.30903 2.6381 1.19844 2.86963 1.4423L11.254 10.2732C11.4855 10.517 11.3485 11.023 10.948 11.4033Z" fill="#58649C"/>
<path fill-rule="evenodd" clip-rule="evenodd" d="M1.72422 11.3868C1.32424 11.006 1.1879 10.4999 1.4197 10.2565L9.81364 1.44075C10.0454 1.19731 10.5576 1.3087 10.9576 1.68953C11.3575 2.07037 11.4939 2.57645 11.2621 2.81989L2.86814 11.6356C2.63634 11.8791 2.12419 11.7677 1.72422 11.3868Z" fill="#58649C"/>
</svg>
