<svg width="36" height="36" viewBox="0 0 36 36" fill="none" xmlns="http://www.w3.org/2000/svg">
<path d="M11.0119 32.285C9.27664 32.206 8.33349 31.917 7.70672 31.6728C6.87577 31.3493 6.28288 30.964 5.65953 30.3415C5.03617 29.719 4.65031 29.1267 4.32824 28.2957C4.08391 27.6692 3.79487 26.7258 3.71599 24.9906C3.62971 23.1145 3.61248 22.551 3.61248 17.7981C3.61248 13.0452 3.63113 12.4832 3.71599 10.6056C3.79502 8.87035 4.08619 7.92876 4.32824 7.30043C4.65174 6.46948 5.03703 5.87659 5.65953 5.25324C6.28203 4.62988 6.87434 4.24402 7.70672 3.92195C8.3332 3.67762 9.27664 3.38858 11.0119 3.3097C12.8879 3.22342 13.4515 3.20619 18.2022 3.20619C22.953 3.20619 23.5171 3.22484 25.3947 3.3097C27.1299 3.38873 28.0715 3.6799 28.6999 3.92195C29.5308 4.24402 30.1237 4.63074 30.7471 5.25324C31.3704 5.87574 31.7548 6.46948 32.0783 7.30043C32.3227 7.92691 32.6117 8.87035 32.6906 10.6056C32.7769 12.4832 32.7941 13.0452 32.7941 17.7981C32.7941 22.551 32.7769 23.113 32.6906 24.9906C32.6116 26.7258 32.3211 27.6689 32.0783 28.2957C31.7548 29.1267 31.3696 29.7196 30.7471 30.3415C30.1246 30.9634 29.5308 31.3493 28.6999 31.6728C28.0734 31.9171 27.1299 32.2061 25.3947 32.285C23.5187 32.3713 22.9551 32.3885 18.2022 32.3885C13.4493 32.3885 12.8873 32.3713 11.0119 32.285ZM10.8645 0.107784C8.9698 0.194069 7.67511 0.494498 6.54444 0.934462C5.37348 1.38881 4.3822 1.99835 3.39164 2.98735C2.40108 3.97634 1.7931 4.96918 1.33876 6.14014C0.898794 7.27152 0.598365 8.5655 0.512081 10.4602C0.424373 12.3579 0.404297 12.9646 0.404297 17.7979C0.404297 22.6313 0.424373 23.238 0.512081 25.1357C0.598365 27.0305 0.898794 28.3243 1.33876 29.4557C1.7931 30.626 2.40122 31.6199 3.39164 32.6085C4.38206 33.5971 5.37348 34.2058 6.54444 34.6614C7.67724 35.1014 8.9698 35.4018 10.8645 35.4881C12.7632 35.5744 13.3689 35.5959 18.2022 35.5959C23.0356 35.5959 23.6423 35.5758 25.54 35.4881C27.4348 35.4018 28.7286 35.1014 29.86 34.6614C31.0303 34.2058 32.0222 33.5975 33.0128 32.6085C34.0034 31.6195 34.6101 30.626 35.0657 29.4557C35.5057 28.3243 35.8075 27.0304 35.8924 25.1357C35.9786 23.2365 35.9987 22.6313 35.9987 17.7979C35.9987 12.9646 35.9786 12.3579 35.8924 10.4602C35.8061 8.56536 35.5057 7.27081 35.0657 6.14014C34.6101 4.96989 34.0018 3.97791 33.0128 2.98735C32.0238 1.99679 31.0303 1.38881 29.8614 0.934462C28.7286 0.494498 27.4346 0.192645 25.5414 0.107784C23.6437 0.0214999 23.037 0 18.2036 0C13.3703 0 12.7632 0.0200761 10.8645 0.107784Z" fill="#58649C"/>
<path d="M11.0119 32.285C9.27664 32.206 8.33349 31.917 7.70672 31.6728C6.87577 31.3493 6.28288 30.964 5.65953 30.3415C5.03617 29.719 4.65031 29.1267 4.32824 28.2957C4.08391 27.6692 3.79487 26.7258 3.71599 24.9906C3.62971 23.1145 3.61248 22.551 3.61248 17.7981C3.61248 13.0452 3.63113 12.4832 3.71599 10.6056C3.79502 8.87035 4.08619 7.92876 4.32824 7.30043C4.65174 6.46948 5.03703 5.87659 5.65953 5.25324C6.28203 4.62988 6.87434 4.24402 7.70672 3.92195C8.3332 3.67762 9.27664 3.38858 11.0119 3.3097C12.8879 3.22342 13.4515 3.20619 18.2022 3.20619C22.953 3.20619 23.5171 3.22484 25.3947 3.3097C27.1299 3.38873 28.0715 3.6799 28.6999 3.92195C29.5308 4.24402 30.1237 4.63074 30.7471 5.25324C31.3704 5.87574 31.7548 6.46948 32.0783 7.30043C32.3227 7.92691 32.6117 8.87035 32.6906 10.6056C32.7769 12.4832 32.7941 13.0452 32.7941 17.7981C32.7941 22.551 32.7769 23.113 32.6906 24.9906C32.6116 26.7258 32.3211 27.6689 32.0783 28.2957C31.7548 29.1267 31.3696 29.7196 30.7471 30.3415C30.1246 30.9634 29.5308 31.3493 28.6999 31.6728C28.0734 31.9171 27.1299 32.2061 25.3947 32.285C23.5187 32.3713 22.9551 32.3885 18.2022 32.3885C13.4493 32.3885 12.8873 32.3713 11.0119 32.285ZM10.8645 0.107784C8.9698 0.194069 7.67511 0.494498 6.54444 0.934462C5.37348 1.38881 4.3822 1.99835 3.39164 2.98735C2.40108 3.97634 1.7931 4.96918 1.33876 6.14014C0.898794 7.27152 0.598365 8.5655 0.512081 10.4602C0.424373 12.3579 0.404297 12.9646 0.404297 17.7979C0.404297 22.6313 0.424373 23.238 0.512081 25.1357C0.598365 27.0305 0.898794 28.3243 1.33876 29.4557C1.7931 30.626 2.40122 31.6199 3.39164 32.6085C4.38206 33.5971 5.37348 34.2058 6.54444 34.6614C7.67724 35.1014 8.9698 35.4018 10.8645 35.4881C12.7632 35.5744 13.3689 35.5959 18.2022 35.5959C23.0356 35.5959 23.6423 35.5758 25.54 35.4881C27.4348 35.4018 28.7286 35.1014 29.86 34.6614C31.0303 34.2058 32.0222 33.5975 33.0128 32.6085C34.0034 31.6195 34.6101 30.626 35.0657 29.4557C35.5057 28.3243 35.8075 27.0304 35.8924 25.1357C35.9786 23.2365 35.9987 22.6313 35.9987 17.7979C35.9987 12.9646 35.9786 12.3579 35.8924 10.4602C35.8061 8.56536 35.5057 7.27081 35.0657 6.14014C34.6101 4.96989 34.0018 3.97791 33.0128 2.98735C32.0238 1.99679 31.0303 1.38881 29.8614 0.934462C28.7286 0.494498 27.4346 0.192645 25.5414 0.107784C23.6437 0.0214999 23.037 0 18.2036 0C13.3703 0 12.7632 0.0200761 10.8645 0.107784Z" fill="url(#paint0_linear_18_3159)"/>
<path fill-rule="evenodd" clip-rule="evenodd" d="M11.4043 0C5.32917 0 0.404297 4.92488 0.404297 11V24.5959C0.404297 30.671 5.32917 35.5959 11.4043 35.5959H25.0002C31.0753 35.5959 36.0002 30.671 36.0002 24.5958V11C36.0002 4.92487 31.0753 0 25.0001 0H11.4043ZM18.2027 13.8425C16.0184 13.8425 14.2481 15.6137 14.2481 17.7979C14.2481 19.9822 16.0184 21.7534 18.2027 21.7534C20.387 21.7534 22.1583 19.9822 22.1583 17.7979C22.1583 15.6137 20.387 13.8425 18.2027 13.8425ZM18.2027 23.8906C14.8376 23.8906 12.1098 21.1629 12.1098 17.7979C12.1098 14.4329 14.8376 11.7053 18.2027 11.7053C21.5678 11.7053 24.2956 14.4329 24.2956 17.7979C24.2956 21.1629 21.5678 23.8906 18.2027 23.8906ZM23.3526 12.2548C23.1962 12.0206 23.1128 11.7453 23.1129 11.4637C23.1133 11.0862 23.2634 10.7243 23.5304 10.4574C23.7974 10.1906 24.1599 10.0406 24.5374 10.0404C24.819 10.0405 25.0943 10.1242 25.3284 10.2807C25.5625 10.4372 25.7449 10.6597 25.8526 10.9199C25.9602 11.1801 25.9883 11.4664 25.9333 11.7426C25.8782 12.0188 25.7425 12.2724 25.5433 12.4715C25.3441 12.6705 25.0903 12.806 24.8141 12.8608C24.5378 12.9157 24.2515 12.8874 23.9914 12.7795C23.7313 12.6716 23.509 12.489 23.3526 12.2548ZM11.2054 27.0478C11.6233 27.2106 12.2521 27.4033 13.4089 27.456C14.6593 27.5135 15.034 27.525 18.2027 27.525C21.3714 27.525 21.7471 27.5135 22.9979 27.456C24.1548 27.4034 24.7837 27.2107 25.2014 27.0478C25.7554 26.8322 26.1512 26.5749 26.5663 26.1603C26.9813 25.7457 27.2381 25.3504 27.4538 24.7965C27.6157 24.3786 27.8093 23.7499 27.862 22.593C27.9195 21.3413 27.931 20.9666 27.931 17.798C27.931 14.6294 27.9195 14.2548 27.862 13.003C27.8094 11.8462 27.6167 11.2173 27.4538 10.7996C27.2381 10.2456 26.9818 9.84982 26.5663 9.43482C26.1507 9.01982 25.7554 8.76201 25.2014 8.54729C24.7825 8.38593 24.1548 8.19181 22.9979 8.13913C21.7461 8.08255 21.37 8.07012 18.2027 8.07012C15.0354 8.07012 14.6597 8.0816 13.4089 8.13913C12.2521 8.19171 11.6231 8.38441 11.2054 8.54729C10.6505 8.76201 10.2556 9.01925 9.84057 9.43482C9.42555 9.85039 9.16868 10.2456 8.95301 10.7996C8.79163 11.2185 8.59751 11.8462 8.54483 13.003C8.48825 14.2548 8.47582 14.6294 8.47582 17.798C8.47582 20.9666 8.4873 21.3423 8.54483 22.593C8.59742 23.7499 8.79012 24.3788 8.95301 24.7965C9.16773 25.3504 9.42498 25.7453 9.84057 26.1603C10.2562 26.5753 10.6514 26.8322 11.2054 27.0478ZM10.4305 6.55563C11.1843 6.26232 12.0475 6.06204 13.3107 6.00452C14.5765 5.94604 14.9813 5.93266 18.2036 5.93266C21.426 5.93266 21.8305 5.94699 23.0957 6.00452C24.3579 6.06109 25.2206 6.26232 25.9758 6.55563C26.7551 6.85853 27.4175 7.26385 28.0768 7.92422C28.7362 8.5846 29.1417 9.24592 29.4455 10.0261C29.7388 10.7799 29.9391 11.6429 29.9966 12.9061C30.0541 14.1712 30.0675 14.5757 30.0675 17.7979C30.0675 21.0202 30.0541 21.4237 29.9966 22.6898C29.94 23.9529 29.7388 24.8155 29.4455 25.5698C29.1417 26.35 28.7372 27.0123 28.0768 27.6717C27.4164 28.331 26.7551 28.7365 25.9749 29.0403C25.2206 29.3336 24.358 29.5338 23.0947 29.5914C21.8295 29.6498 21.4251 29.6632 18.2027 29.6632C14.9803 29.6632 14.5765 29.6489 13.3107 29.5914C12.0475 29.5338 11.1858 29.3336 10.4305 29.0403C9.64986 28.7365 8.98889 28.3307 8.32858 27.6717C7.66828 27.0126 7.26285 26.35 6.95994 25.5698C6.66662 24.8155 6.46632 23.953 6.4088 22.6898C6.35033 21.4246 6.33694 21.0202 6.33694 17.7979C6.33694 14.5757 6.35033 14.1712 6.4088 12.9061C6.46632 11.643 6.66662 10.7803 6.95994 10.0261C7.26285 9.24545 7.66818 8.58355 8.32858 7.92422C8.98899 7.26489 9.64986 6.85853 10.4305 6.55563Z" fill="#58649C"/>
<path fill-rule="evenodd" clip-rule="evenodd" d="M11.4043 0C5.32917 0 0.404297 4.92488 0.404297 11V24.5959C0.404297 30.671 5.32917 35.5959 11.4043 35.5959H25.0002C31.0753 35.5959 36.0002 30.671 36.0002 24.5958V11C36.0002 4.92487 31.0753 0 25.0001 0H11.4043ZM18.2027 13.8425C16.0184 13.8425 14.2481 15.6137 14.2481 17.7979C14.2481 19.9822 16.0184 21.7534 18.2027 21.7534C20.387 21.7534 22.1583 19.9822 22.1583 17.7979C22.1583 15.6137 20.387 13.8425 18.2027 13.8425ZM18.2027 23.8906C14.8376 23.8906 12.1098 21.1629 12.1098 17.7979C12.1098 14.4329 14.8376 11.7053 18.2027 11.7053C21.5678 11.7053 24.2956 14.4329 24.2956 17.7979C24.2956 21.1629 21.5678 23.8906 18.2027 23.8906ZM23.3526 12.2548C23.1962 12.0206 23.1128 11.7453 23.1129 11.4637C23.1133 11.0862 23.2634 10.7243 23.5304 10.4574C23.7974 10.1906 24.1599 10.0406 24.5374 10.0404C24.819 10.0405 25.0943 10.1242 25.3284 10.2807C25.5625 10.4372 25.7449 10.6597 25.8526 10.9199C25.9602 11.1801 25.9883 11.4664 25.9333 11.7426C25.8782 12.0188 25.7425 12.2724 25.5433 12.4715C25.3441 12.6705 25.0903 12.806 24.8141 12.8608C24.5378 12.9157 24.2515 12.8874 23.9914 12.7795C23.7313 12.6716 23.509 12.489 23.3526 12.2548ZM11.2054 27.0478C11.6233 27.2106 12.2521 27.4033 13.4089 27.456C14.6593 27.5135 15.034 27.525 18.2027 27.525C21.3714 27.525 21.7471 27.5135 22.9979 27.456C24.1548 27.4034 24.7837 27.2107 25.2014 27.0478C25.7554 26.8322 26.1512 26.5749 26.5663 26.1603C26.9813 25.7457 27.2381 25.3504 27.4538 24.7965C27.6157 24.3786 27.8093 23.7499 27.862 22.593C27.9195 21.3413 27.931 20.9666 27.931 17.798C27.931 14.6294 27.9195 14.2548 27.862 13.003C27.8094 11.8462 27.6167 11.2173 27.4538 10.7996C27.2381 10.2456 26.9818 9.84982 26.5663 9.43482C26.1507 9.01982 25.7554 8.76201 25.2014 8.54729C24.7825 8.38593 24.1548 8.19181 22.9979 8.13913C21.7461 8.08255 21.37 8.07012 18.2027 8.07012C15.0354 8.07012 14.6597 8.0816 13.4089 8.13913C12.2521 8.19171 11.6231 8.38441 11.2054 8.54729C10.6505 8.76201 10.2556 9.01925 9.84057 9.43482C9.42555 9.85039 9.16868 10.2456 8.95301 10.7996C8.79163 11.2185 8.59751 11.8462 8.54483 13.003C8.48825 14.2548 8.47582 14.6294 8.47582 17.798C8.47582 20.9666 8.4873 21.3423 8.54483 22.593C8.59742 23.7499 8.79012 24.3788 8.95301 24.7965C9.16773 25.3504 9.42498 25.7453 9.84057 26.1603C10.2562 26.5753 10.6514 26.8322 11.2054 27.0478ZM10.4305 6.55563C11.1843 6.26232 12.0475 6.06204 13.3107 6.00452C14.5765 5.94604 14.9813 5.93266 18.2036 5.93266C21.426 5.93266 21.8305 5.94699 23.0957 6.00452C24.3579 6.06109 25.2206 6.26232 25.9758 6.55563C26.7551 6.85853 27.4175 7.26385 28.0768 7.92422C28.7362 8.5846 29.1417 9.24592 29.4455 10.0261C29.7388 10.7799 29.9391 11.6429 29.9966 12.9061C30.0541 14.1712 30.0675 14.5757 30.0675 17.7979C30.0675 21.0202 30.0541 21.4237 29.9966 22.6898C29.94 23.9529 29.7388 24.8155 29.4455 25.5698C29.1417 26.35 28.7372 27.0123 28.0768 27.6717C27.4164 28.331 26.7551 28.7365 25.9749 29.0403C25.2206 29.3336 24.358 29.5338 23.0947 29.5914C21.8295 29.6498 21.4251 29.6632 18.2027 29.6632C14.9803 29.6632 14.5765 29.6489 13.3107 29.5914C12.0475 29.5338 11.1858 29.3336 10.4305 29.0403C9.64986 28.7365 8.98889 28.3307 8.32858 27.6717C7.66828 27.0126 7.26285 26.35 6.95994 25.5698C6.66662 24.8155 6.46632 23.953 6.4088 22.6898C6.35033 21.4246 6.33694 21.0202 6.33694 17.7979C6.33694 14.5757 6.35033 14.1712 6.4088 12.9061C6.46632 11.643 6.66662 10.7803 6.95994 10.0261C7.26285 9.24545 7.66818 8.58355 8.32858 7.92422C8.98899 7.26489 9.64986 6.85853 10.4305 6.55563Z" fill="url(#paint1_linear_18_3159)"/>
<defs>
<linearGradient id="paint0_linear_18_3159" x1="18.2015" y1="0" x2="18.2015" y2="35.5959" gradientUnits="userSpaceOnUse">
<stop stop-color="#8492D1"/>
<stop offset="1" stop-color="#58649C"/>
</linearGradient>
<linearGradient id="paint1_linear_18_3159" x1="18.2022" y1="0" x2="18.2022" y2="35.5959" gradientUnits="userSpaceOnUse">
<stop stop-color="#8492D1"/>
<stop offset="1" stop-color="#58649C"/>
</linearGradient>
</defs>
</svg>
