<svg width="22" height="14" viewBox="0 0 22 14" fill="none" xmlns="http://www.w3.org/2000/svg">
<path fill-rule="evenodd" clip-rule="evenodd" d="M0 1C0 0.447715 0.447715 0 1 0H21C21.5523 0 22 0.447715 22 1C22 1.55228 21.5523 2 21 2H1C0.447715 2 0 1.55228 0 1ZM0 7C0 6.44772 0.447715 6 1 6H21C21.5523 6 22 6.44772 22 7C22 7.55228 21.5523 8 21 8H1C0.447715 8 0 7.55228 0 7ZM6.33203 12C5.77975 12 5.33203 12.4477 5.33203 13C5.33203 13.5523 5.77975 14 6.33203 14L20.9987 14C21.551 14 21.9987 13.5523 21.9987 13C21.9987 12.4477 21.551 12 20.9987 12L6.33203 12Z" fill="#58649C"/>
<path fill-rule="evenodd" clip-rule="evenodd" d="M0 1C0 0.447715 0.447715 0 1 0H21C21.5523 0 22 0.447715 22 1C22 1.55228 21.5523 2 21 2H1C0.447715 2 0 1.55228 0 1ZM0 7C0 6.44772 0.447715 6 1 6H21C21.5523 6 22 6.44772 22 7C22 7.55228 21.5523 8 21 8H1C0.447715 8 0 7.55228 0 7ZM6.33203 12C5.77975 12 5.33203 12.4477 5.33203 13C5.33203 13.5523 5.77975 14 6.33203 14L20.9987 14C21.551 14 21.9987 13.5523 21.9987 13C21.9987 12.4477 21.551 12 20.9987 12L6.33203 12Z" fill="url(#paint0_linear_18_3955)"/>
<defs>
<linearGradient id="paint0_linear_18_3955" x1="11" y1="0" x2="11" y2="14" gradientUnits="userSpaceOnUse">
<stop stop-color="#8492D1"/>
<stop offset="1" stop-color="#58649C"/>
</linearGradient>
</defs>
</svg>
