<svg width="32" height="27" viewBox="0 0 32 27" fill="none" xmlns="http://www.w3.org/2000/svg">
<path d="M2.37955 11.9836C10.6607 8.29984 16.1828 5.87126 18.9457 4.69789C26.8346 1.34767 28.4738 0.765702 29.5423 0.74628C29.7772 0.742258 30.3027 0.80172 30.643 1.08369C30.9304 1.32179 31.0095 1.64341 31.0473 1.86915C31.0851 2.09489 31.1323 2.60913 31.0948 3.01094C30.6673 7.59713 28.8175 18.7266 27.8765 23.8632C27.4783 26.0367 26.6942 26.7655 25.9351 26.8368C24.2855 26.9918 23.0328 25.7237 21.4351 24.6543C18.9349 22.981 17.5225 21.9393 15.0956 20.3065C12.291 18.4194 14.1091 17.3822 15.7075 15.6872C16.1258 15.2436 23.3941 8.49358 23.5348 7.88124C23.5524 7.80466 23.5687 7.51919 23.4026 7.36846C23.2365 7.21772 22.9914 7.26927 22.8145 7.31026C22.5637 7.36837 18.5697 10.0638 10.8323 15.3965C9.69863 16.1913 8.67176 16.5786 7.75173 16.5583C6.73746 16.5359 4.78641 15.9728 3.33601 15.4914C1.55704 14.901 0.143144 14.5888 0.266263 13.5861C0.33039 13.0638 1.03482 12.5296 2.37955 11.9836Z" fill="#58649C"/>
<path d="M2.37955 11.9836C10.6607 8.29984 16.1828 5.87126 18.9457 4.69789C26.8346 1.34767 28.4738 0.765702 29.5423 0.74628C29.7772 0.742258 30.3027 0.80172 30.643 1.08369C30.9304 1.32179 31.0095 1.64341 31.0473 1.86915C31.0851 2.09489 31.1323 2.60913 31.0948 3.01094C30.6673 7.59713 28.8175 18.7266 27.8765 23.8632C27.4783 26.0367 26.6942 26.7655 25.9351 26.8368C24.2855 26.9918 23.0328 25.7237 21.4351 24.6543C18.9349 22.981 17.5225 21.9393 15.0956 20.3065C12.291 18.4194 14.1091 17.3822 15.7075 15.6872C16.1258 15.2436 23.3941 8.49358 23.5348 7.88124C23.5524 7.80466 23.5687 7.51919 23.4026 7.36846C23.2365 7.21772 22.9914 7.26927 22.8145 7.31026C22.5637 7.36837 18.5697 10.0638 10.8323 15.3965C9.69863 16.1913 8.67176 16.5786 7.75173 16.5583C6.73746 16.5359 4.78641 15.9728 3.33601 15.4914C1.55704 14.901 0.143144 14.5888 0.266263 13.5861C0.33039 13.0638 1.03482 12.5296 2.37955 11.9836Z" fill="url(#paint0_linear_18_3157)"/>
<defs>
<linearGradient id="paint0_linear_18_3157" x1="15.6837" y1="0.746094" x2="15.6837" y2="26.8497" gradientUnits="userSpaceOnUse">
<stop stop-color="#8492D1"/>
<stop offset="1" stop-color="#58649C"/>
</linearGradient>
</defs>
</svg>
